<svg width="22" height="21" fill="none" xmlns="http://www.w3.org/2000/svg"><path d="M16.377 3.59a1.179 1.179 0 1 0 0 2.359 1.179 1.179 0 0 0 0-2.358ZM11.136 5.103a4.957 4.957 0 0 0-4.952 4.951 4.958 4.958 0 0 0 4.952 4.952 4.958 4.958 0 0 0 4.952-4.952 4.957 4.957 0 0 0-4.952-4.951Zm0 8.123a3.175 3.175 0 0 1-3.172-3.173 3.175 3.175 0 0 1 3.172-3.172 3.175 3.175 0 0 1 3.172 3.172 3.175 3.175 0 0 1-3.172 3.173Z" fill="#fff"/><path d="M15.068 20.108H7.036a6.046 6.046 0 0 1-6.039-6.039V6.041a6.046 6.046 0 0 1 6.04-6.04h8.027a6.046 6.046 0 0 1 6.04 6.039v8.028a6.046 6.046 0 0 1-6.036 6.04ZM7.036 1.893A4.152 4.152 0 0 0 2.89 6.04v8.028a4.152 4.152 0 0 0 4.147 4.153h8.028a4.153 4.153 0 0 0 4.15-4.147V6.046a4.153 4.153 0 0 0-4.15-4.147l-8.028-.006Z" fill="#fff"/></svg>