<svg width="114" height="40" fill="none" xmlns="http://www.w3.org/2000/svg"><path d="M0 8a8 8 0 0 1 8-8h98a8 8 0 0 1 8 8v24a8 8 0 0 1-8 8H8a8 8 0 0 1-8-8V8Z" fill="#C92071"/><path d="M34.969 25V14.818h6.86v1.775h-4.707v2.426h4.355v1.775h-4.355v2.431h4.728V25h-6.881Zm11.4-4.415V25h-2.118v-7.636h2.019v1.347h.09a2.13 2.13 0 0 1 .85-1.054c.397-.262.88-.393 1.446-.393.53 0 .993.116 1.387.348.395.232.701.564.92.995.219.427.328.938.328 1.53V25h-2.118v-4.484c.004-.468-.116-.832-.358-1.094-.242-.265-.575-.398-.999-.398a1.52 1.52 0 0 0-.756.184 1.281 1.281 0 0 0-.507.537 1.86 1.86 0 0 0-.184.84Zm11.403-3.221v1.59h-4.599v-1.59h4.6Zm-3.554-1.83h2.117v7.12c0 .195.03.347.09.457.06.106.142.18.248.223.11.044.236.065.378.065.1 0 .2-.008.299-.025l.228-.044.333 1.576a5.94 5.94 0 0 1-.447.114 3.585 3.585 0 0 1-.701.084c-.51.02-.958-.048-1.342-.203a1.874 1.874 0 0 1-.89-.726c-.212-.328-.317-.743-.313-1.243v-7.398ZM59.901 25v-7.636h2.053v1.332h.08c.139-.474.373-.832.7-1.074a1.842 1.842 0 0 1 1.134-.368 3.219 3.219 0 0 1 .666.075v1.88a2.77 2.77 0 0 0-.412-.08 3.707 3.707 0 0 0-.483-.035c-.311 0-.59.068-.835.204a1.501 1.501 0 0 0-.577.556c-.139.239-.208.514-.208.826V25h-2.118Zm8.437.144c-.487 0-.921-.084-1.302-.253a2.097 2.097 0 0 1-.905-.761c-.219-.338-.328-.759-.328-1.263 0-.424.078-.78.233-1.069.156-.288.368-.52.637-.696.268-.175.573-.308.914-.398a6.99 6.99 0 0 1 1.084-.188c.444-.047.802-.09 1.074-.13.272-.043.47-.106.592-.189a.415.415 0 0 0 .184-.367v-.03c0-.315-.1-.559-.299-.731-.195-.172-.474-.259-.835-.259-.381 0-.684.085-.91.254a1.167 1.167 0 0 0-.447.626l-1.959-.159c.1-.464.295-.865.587-1.203a2.816 2.816 0 0 1 1.128-.785c.464-.186 1.001-.279 1.611-.279.424 0 .83.05 1.218.15.391.099.738.253 1.04.462.304.208.544.477.72.805.176.325.264.714.264 1.168V25H70.63v-1.059h-.06c-.122.239-.286.45-.492.631-.205.18-.452.32-.74.423-.289.1-.622.15-1 .15Zm.607-1.461c.311 0 .586-.062.825-.184.239-.126.426-.295.562-.508.136-.212.204-.452.204-.72v-.81a1.133 1.133 0 0 1-.274.119c-.113.033-.24.064-.383.094a19.31 19.31 0 0 1-.427.075l-.388.054a2.615 2.615 0 0 0-.651.174 1.04 1.04 0 0 0-.433.323.787.787 0 0 0-.154.498c0 .288.105.508.313.66.212.15.48.225.806.225ZM75.033 25v-7.636h2.053v1.332h.08c.139-.474.372-.832.7-1.074A1.842 1.842 0 0 1 79 17.254a3.216 3.216 0 0 1 .666.075v1.88c-.1-.03-.237-.057-.412-.08a3.709 3.709 0 0 0-.483-.035c-.311 0-.59.068-.835.204a1.5 1.5 0 0 0-.577.556c-.139.239-.208.514-.208.826V25h-2.118Z" fill="#F5F5F5"/></svg>