<svg width="253" height="44" fill="none" xmlns="http://www.w3.org/2000/svg"><path d="M4.973 5.05a5.918 5.918 0 0 0-3.221 1.672C1.092 7.386.81 7.798.447 8.654-.027 9.744 0 9.045 0 21.45c0 12.138-.013 11.658.378 12.686.268.72.68 1.364 1.264 1.974.83.87 1.724 1.392 2.905 1.707l.57.15 10.954.028c7.795.014 11.153 0 11.634-.055 1.428-.164 2.582-.706 3.571-1.686.735-.726 1.168-1.432 1.525-2.494l.199-.583V9.874l-.158-.541c-.577-1.995-2.074-3.496-4.1-4.133l-.618-.192-11.4-.007c-6.27-.007-11.56.014-11.751.048Zm7.314 12.357c2.314 2.22 4.19 4.064 4.182 4.091-.014.028-1.916 1.871-4.23 4.099l-4.217 4.05L6.93 28.6c-.598-.57-1.092-1.076-1.085-1.11 0-.042 1.394-1.399 3.09-3.016 1.69-1.625 3.077-2.968 3.084-2.988 0-.028-1.387-1.385-3.09-3.016-1.697-1.631-3.091-2.982-3.091-3.002 0-.09 2.101-2.132 2.17-2.118.048.014 1.971 1.837 4.279 4.058Zm14.978 10.972v1.268H19.3v-2.536h7.966v1.268ZM52.58 35h-8.97V8.53h9.151c2.628 0 4.886.53 6.773 1.59 1.895 1.052 3.351 2.564 4.368 4.537 1.017 1.973 1.525 4.334 1.525 7.083 0 2.757-.513 5.126-1.538 7.108-1.017 1.982-2.486 3.502-4.407 4.562C57.569 34.47 55.269 35 52.58 35Zm-4.174-4.149h3.942c1.843 0 3.382-.336 4.614-1.008 1.232-.68 2.158-1.693 2.778-3.037.62-1.353.93-3.042.93-5.066 0-2.025-.31-3.705-.93-5.04-.62-1.345-1.538-2.349-2.753-3.012-1.206-.672-2.705-1.008-4.497-1.008h-4.084V30.85ZM69.412 35V15.148h4.679V35h-4.679Zm2.352-22.67a2.729 2.729 0 0 1-1.912-.736c-.535-.5-.802-1.099-.802-1.797 0-.706.267-1.305.802-1.796.534-.5 1.171-.75 1.912-.75.75 0 1.388.25 1.913.75.534.491.801 1.09.801 1.796 0 .698-.267 1.297-.8 1.797-.526.491-1.164.737-1.914.737Zm15.407 30.528c-1.68 0-3.123-.228-4.33-.685-1.206-.448-2.175-1.051-2.907-1.81-.733-.758-1.24-1.598-1.525-2.52l4.213-1.02c.19.387.465.77.827 1.15.362.387.849.706 1.46.956.621.258 1.4.388 2.34.388 1.327 0 2.425-.323 3.296-.97.87-.637 1.305-1.688 1.305-3.153v-3.761h-.233c-.24.482-.594.978-1.06 1.486-.456.509-1.064.935-1.822 1.28-.75.344-1.693.517-2.83.517-1.525 0-2.908-.358-4.149-1.073-1.232-.724-2.214-1.8-2.947-3.231-.723-1.44-1.085-3.24-1.085-5.402 0-2.18.362-4.02 1.085-5.52.733-1.507 1.72-2.649 2.96-3.424 1.24-.784 2.624-1.176 4.149-1.176 1.163 0 2.12.198 2.869.594.758.388 1.361.857 1.81 1.409.448.543.788 1.055 1.02 1.538h.259v-3.283h4.614v20.175c0 1.697-.405 3.102-1.215 4.213-.81 1.112-1.917 1.943-3.322 2.495-1.404.551-2.998.827-4.782.827Zm.04-11.813c.99 0 1.835-.241 2.532-.724.698-.482 1.228-1.176 1.59-2.08.362-.905.543-1.99.543-3.257 0-1.25-.181-2.344-.543-3.283-.353-.94-.879-1.667-1.577-2.184-.689-.526-1.538-.789-2.546-.789-1.042 0-1.913.272-2.61.814-.698.543-1.224 1.289-1.577 2.236-.353.94-.53 2.008-.53 3.206 0 1.214.177 2.279.53 3.192.362.905.892 1.611 1.59 2.12.706.5 1.572.75 2.597.75ZM100.92 35V15.148h4.679V35h-4.679Zm2.352-22.67a2.73 2.73 0 0 1-1.913-.736c-.534-.5-.801-1.099-.801-1.797 0-.706.267-1.305.801-1.796.535-.5 1.172-.75 1.913-.75.75 0 1.387.25 1.913.75.534.491.801 1.09.801 1.796 0 .698-.267 1.297-.801 1.797-.526.491-1.163.737-1.913.737Zm16.687 2.818v3.619h-11.413v-3.619h11.413Zm-8.595-4.756h4.679v18.637c0 .629.094 1.111.284 1.448.198.327.457.55.775.671.319.121.672.181 1.06.181.293 0 .56-.021.802-.064.249-.043.439-.082.568-.117l.789 3.658c-.25.086-.608.181-1.073.285-.457.103-1.017.163-1.68.18-1.172.035-2.228-.142-3.167-.53a4.93 4.93 0 0 1-2.236-1.835c-.543-.827-.81-1.86-.801-3.102V10.392Zm17.856 25.009c-1.258 0-2.391-.224-3.399-.672a5.55 5.55 0 0 1-2.378-2.017c-.577-.887-.866-1.981-.866-3.282 0-1.12.207-2.047.62-2.78a4.801 4.801 0 0 1 1.694-1.757 8.534 8.534 0 0 1 2.416-.995c.905-.233 1.84-.4 2.805-.504 1.163-.12 2.107-.228 2.83-.323.724-.104 1.25-.259 1.577-.466.336-.215.504-.547.504-.995v-.077c0-.974-.288-1.728-.866-2.262-.577-.534-1.408-.801-2.494-.801-1.146 0-2.055.25-2.727.75-.664.5-1.112 1.09-1.344 1.77l-4.369-.62c.345-1.207.914-2.215 1.706-3.025.793-.818 1.762-1.43 2.908-1.835 1.146-.413 2.413-.62 3.8-.62.956 0 1.909.112 2.856.336a8.034 8.034 0 0 1 2.598 1.111c.784.509 1.413 1.202 1.887 2.081.483.879.724 1.977.724 3.296V35h-4.498v-2.727h-.155a5.705 5.705 0 0 1-1.202 1.55c-.508.475-1.15.858-1.926 1.151-.766.285-1.667.427-2.701.427Zm1.215-3.438c.939 0 1.753-.186 2.443-.556.689-.38 1.219-.879 1.589-1.5.38-.62.569-1.296.569-2.028v-2.34c-.146.121-.396.233-.749.336-.345.104-.733.194-1.164.272-.43.077-.857.146-1.279.207l-1.099.155a8.177 8.177 0 0 0-1.874.465c-.551.215-.986.517-1.305.905-.319.379-.478.87-.478 1.473 0 .862.314 1.512.943 1.952.629.44 1.43.659 2.404.659ZM148.722 8.53V35h-4.679V8.53h4.679Zm27.703 7.276c-.121-1.128-.629-2.007-1.526-2.636-.887-.63-2.042-.944-3.463-.944-1 0-1.857.151-2.572.453-.715.301-1.263.71-1.642 1.227a2.982 2.982 0 0 0-.581 1.771c0 .552.125 1.03.375 1.435.258.405.607.75 1.046 1.034.44.275.927.508 1.461.698.534.19 1.073.349 1.615.478l2.482.62c.999.233 1.96.547 2.882.944.931.396 1.762.896 2.494 1.499a6.656 6.656 0 0 1 1.758 2.184c.431.853.646 1.852.646 2.998 0 1.551-.396 2.917-1.189 4.098-.792 1.171-1.938 2.089-3.438 2.752-1.49.655-3.295.983-5.415.983-2.059 0-3.847-.32-5.363-.957-1.508-.637-2.689-1.568-3.542-2.791-.844-1.224-1.301-2.714-1.37-4.472h4.718c.069.922.353 1.688.853 2.3.499.612 1.15 1.069 1.951 1.37.81.302 1.715.453 2.714.453 1.043 0 1.956-.155 2.74-.466.793-.319 1.413-.758 1.861-1.318.449-.569.677-1.232.685-1.99-.008-.69-.211-1.258-.607-1.706-.396-.457-.952-.836-1.667-1.138a16.087 16.087 0 0 0-2.482-.827l-3.011-.775c-2.18-.56-3.903-1.409-5.17-2.546-1.258-1.146-1.887-2.667-1.887-4.563 0-1.56.422-2.925 1.267-4.097.853-1.171 2.012-2.08 3.476-2.727 1.465-.655 3.124-.982 4.976-.982 1.879 0 3.524.327 4.937.982 1.422.646 2.538 1.547 3.348 2.701.81 1.146 1.228 2.465 1.254 3.955h-4.614Zm18.592-.659v3.619h-11.412v-3.619h11.412Zm-8.594-4.756h4.678v18.637c0 .629.095 1.111.285 1.448.198.327.456.55.775.671s.672.181 1.06.181c.293 0 .56-.021.801-.064.25-.043.44-.082.569-.117l.788 3.658c-.25.086-.607.181-1.072.285-.457.103-1.017.163-1.681.18-1.171.035-2.227-.142-3.166-.53a4.924 4.924 0 0 1-2.236-1.835c-.543-.827-.81-1.86-.801-3.102V10.392Zm20.589 24.996c-1.938 0-3.618-.427-5.04-1.28-1.422-.853-2.525-2.046-3.309-3.58-.775-1.534-1.163-3.326-1.163-5.376 0-2.051.388-3.848 1.163-5.39.784-1.542 1.887-2.74 3.309-3.593 1.422-.853 3.102-1.28 5.04-1.28 1.939 0 3.619.427 5.041 1.28 1.422.853 2.52 2.05 3.296 3.593.784 1.543 1.176 3.339 1.176 5.39 0 2.05-.392 3.842-1.176 5.376-.776 1.534-1.874 2.727-3.296 3.58-1.422.853-3.102 1.28-5.041 1.28Zm.026-3.748c1.051 0 1.93-.289 2.637-.866.706-.586 1.232-1.37 1.577-2.352.353-.983.529-2.077.529-3.283 0-1.215-.176-2.314-.529-3.296-.345-.99-.871-1.78-1.577-2.365-.707-.586-1.586-.879-2.637-.879-1.077 0-1.973.293-2.688.879-.707.586-1.236 1.374-1.59 2.365-.344.982-.517 2.08-.517 3.296 0 1.206.173 2.3.517 3.283.354.982.883 1.766 1.59 2.352.715.577 1.611.866 2.688.866ZM220.132 35V15.148h4.536v3.309h.207c.362-1.146.982-2.03 1.861-2.65.888-.629 1.9-.943 3.037-.943.259 0 .548.013.866.039.328.017.599.047.815.09v4.304c-.199-.07-.513-.13-.944-.181a8.677 8.677 0 0 0-1.228-.09c-.853 0-1.62.185-2.3.555a4.07 4.07 0 0 0-1.59 1.512c-.388.647-.582 1.392-.582 2.236V35h-4.678Zm22.037.388c-1.99 0-3.709-.414-5.157-1.241-1.439-.836-2.546-2.016-3.321-3.541-.776-1.534-1.164-3.34-1.164-5.416 0-2.042.388-3.834 1.164-5.376.784-1.551 1.878-2.757 3.282-3.619 1.405-.87 3.055-1.305 4.95-1.305 1.224 0 2.379.198 3.464.594 1.094.388 2.06.991 2.895 1.81.845.818 1.508 1.86 1.991 3.127.482 1.258.723 2.758.723 4.498v1.435h-16.271V23.2h11.787c-.009-.896-.203-1.693-.582-2.391a4.226 4.226 0 0 0-1.59-1.667c-.672-.405-1.456-.608-2.352-.608-.956 0-1.796.233-2.52.698a4.807 4.807 0 0 0-1.693 1.81 5.204 5.204 0 0 0-.608 2.442v2.753c0 1.155.211 2.146.634 2.973.422.818 1.012 1.447 1.77 1.887.758.43 1.646.646 2.663.646.68 0 1.296-.095 1.848-.284a4.104 4.104 0 0 0 1.434-.866c.405-.38.711-.849.918-1.409l4.369.491a6.819 6.819 0 0 1-1.577 3.024c-.767.854-1.749 1.517-2.947 1.99-1.198.466-2.568.699-4.11.699Z" fill="#C92071"/></svg>